<?xml version="1.0" encoding="iso-8859-1"?>
<!-- Generator: Adobe Illustrator 16.0.0, SVG Export Plug-In . SVG Version: 6.00 Build 0)  -->
<!DOCTYPE svg PUBLIC "-//W3C//DTD SVG 1.1//EN" "http://www.w3.org/Graphics/SVG/1.1/DTD/svg11.dtd">
<svg version="1.1" id="Capa_1" xmlns="http://www.w3.org/2000/svg" xmlns:xlink="http://www.w3.org/1999/xlink" x="0px" y="0px"
	 width="348.398px" height="348.398px" viewBox="0 0 348.398 348.398" style="enable-background:new 0 0 348.398 348.398;"
	 xml:space="preserve">
<g>
	<g>
		<path d="M70.205,348.398c-7.968,0-14.417-6.449-14.417-14.417V28.124c0-6.876,4.858-12.797,11.595-14.139
			c1.813-0.366,2.774-1.051,5.534-3.17c15.213-11.679,31.39-18.27,101.484,3.534c72.135,22.476,91.147,6.812,91.267,6.623
			c3.23-5.668,9.871-8.442,16.225-6.788c6.317,1.678,10.719,7.398,10.719,13.94v150.297c0,2.51-0.654,4.978-1.916,7.151
			c-3.662,6.449-26.997,37.062-124.86,6.624c-61.201-19.057-69.73-12.526-75.348-8.215c-1.648,1.255-3.543,2.72-5.861,4.107v145.893
			C84.632,341.949,78.18,348.398,70.205,348.398z"/>
	</g>
</g>
<g>
</g>
<g>
</g>
<g>
</g>
<g>
</g>
<g>
</g>
<g>
</g>
<g>
</g>
<g>
</g>
<g>
</g>
<g>
</g>
<g>
</g>
<g>
</g>
<g>
</g>
<g>
</g>
<g>
</g>
</svg>
