<?xml version="1.0" encoding="utf-8"?>
<!-- Generator: Adobe Illustrator 24.0.0, SVG Export Plug-In . SVG Version: 6.00 Build 0)  -->
<svg version="1.1" id="Layer_1" xmlns:svgjs="http://svgjs.com/svgjs"
	 xmlns="http://www.w3.org/2000/svg" xmlns:xlink="http://www.w3.org/1999/xlink" x="0px" y="0px" viewBox="0 0 512 512"
	 style="enable-background:new 0 0 512 512;" xml:space="preserve">
<style type="text/css">
	.st0{fill:#3C3C3C;}
	.st1{fill:#FF6A76;}
</style>
<g>
	<path class="st0" d="M453.3,96H58.7C26.3,96,0,122.3,0,154.7V400c0,32.4,26.3,58.7,58.7,58.7h394.7c32.4,0,58.7-26.3,58.7-58.7
		V154.7C512,122.3,485.7,96,453.3,96z"/>
	<g>
		<path class="st1" d="M291.8,49.9h-81.4c-17.5,0-31.7,14.7-31.7,32.7V120c0,18,14.2,32.7,31.7,32.7h81.4
			c17.5,0,31.7-14.7,31.7-32.7V82.6C323.5,64.6,309.3,49.9,291.8,49.9z"/>
		<ellipse class="st1" cx="160" cy="245.3" rx="48" ry="49.9"/>
		<path class="st1" d="M196.4,324.1h-69.6c-30.2,0-54.7,25.1-54.7,55.9v10.2c0,8.4,6.7,15.2,14.9,15.2h149.1
			c8.2,0,14.9-6.8,14.9-15.2v-10.2C251.1,349.1,226.6,324.1,196.4,324.1z"/>
	</g>
	<path d="M453.3,469.3H58.7C26.3,469.3,0,443,0,410.7V144c0-32.4,26.3-58.7,58.7-58.7h128c8.8,0,16,7.2,16,16s-7.2,16-16,16h-128
		C44,117.3,32,129.3,32,144v266.7c0,14.7,12,26.7,26.7,26.7h394.7c14.7,0,26.7-12,26.7-26.7V144c0-14.7-12-26.7-26.7-26.7h-128
		c-8.8,0-16-7.2-16-16s7.2-16,16-16h128c32.4,0,58.7,26.3,58.7,58.7v266.7C512,443,485.7,469.3,453.3,469.3z"/>
	<path d="M304,160h-96c-20.6,0-37.3-16.7-37.3-37.3V80c0-20.6,16.7-37.3,37.3-37.3h96c20.6,0,37.3,16.7,37.3,37.3v42.7
		C341.3,143.3,324.6,160,304,160z M208,74.7c-2.9,0-5.3,2.4-5.3,5.3v42.7c0,2.9,2.4,5.3,5.3,5.3h96c2.9,0,5.3-2.4,5.3-5.3V80
		c0-2.9-2.4-5.3-5.3-5.3H208z"/>
	<path d="M160,298.7c-29.4,0-53.3-23.9-53.3-53.3S130.6,192,160,192s53.3,23.9,53.3,53.3S189.4,298.7,160,298.7z M160,224
		c-11.8,0-21.3,9.6-21.3,21.3s9.6,21.3,21.3,21.3c11.8,0,21.3-9.6,21.3-21.3S171.8,224,160,224z"/>
	<path d="M240,405.3c-8.8,0-16-7.2-16-16v-10.7c0-14.7-12-26.7-26.7-26.7h-74.7C108,352,96,364,96,378.7v10.7c0,8.8-7.2,16-16,16
		s-16-7.2-16-16v-10.7c0-32.4,26.3-58.7,58.7-58.7h74.7c32.4,0,58.7,26.3,58.7,58.7v10.7C256,398.2,248.8,405.3,240,405.3z"/>
	<path d="M432,234.7H314.7c-8.8,0-16-7.2-16-16s7.2-16,16-16H432c8.8,0,16,7.2,16,16S440.8,234.7,432,234.7z"/>
	<path d="M432,320H314.7c-8.8,0-16-7.2-16-16c0-8.8,7.2-16,16-16H432c8.8,0,16,7.2,16,16C448,312.8,440.8,320,432,320z"/>
	<path d="M432,405.3H314.7c-8.8,0-16-7.2-16-16s7.2-16,16-16H432c8.8,0,16,7.2,16,16S440.8,405.3,432,405.3z"/>
</g>
</svg>
